# xmcd
#
# Track frame offsets: 
#        150
#        14199
#        29982
#        46921
#        65250
#        83317
#        98718
#        114583
#        131277
#        146683
#        160647
#
# Disc length: 2424 seconds
#
# Revision: 0
# Processed by: cddbd v1.5.2PL0 Copyright (c) Steve Scherf et al.
# Submitted via: ExactAudioCopy v1.3
#
DISCID=8b09760b
DTITLE=Drew Kennedy - At Home In The Big Lonesome
DYEAR=2017
DGENRE=Country
TTITLE0=When I'll Miss You Most
TTITLE1=Sing This Town To Sleep
TTITLE2=Open Road
TTITLE3=24 Hours In New York City
TTITLE4=House
TTITLE5=Cream And Sugar
TTITLE6=Miles To Go
TTITLE7=Jackson
TTITLE8=My Love Will Never Change
TTITLE9=Scratch And Dent
TTITLE10=Walnut Street
EXTD=
EXTT0=
EXTT1=
EXTT2=
EXTT3=
EXTT4=
EXTT5=
EXTT6=
EXTT7=
EXTT8=
EXTT9=
EXTT10=
PLAYORDER=
